<svg xmlns="http://www.w3.org/2000/svg" viewBox="0 0 64 64" fill="none">
  <defs>
    <linearGradient id="bg" x1="0" y1="0" x2="64" y2="64" gradientUnits="userSpaceOnUse">
      <stop stop-color="#A3AAAE"/>
      <stop offset="1" stop-color="#555"/>
    </linearGradient>
  </defs>
  <circle cx="32" cy="32" r="30" fill="url(#bg)"/>
  <path d="M38.5 13c-2.2 0-4.8 1.5-6.3 1.5s-3.8-1.4-6.2-1.4c-5 0-10.5 4.5-10.5 13 0 8 6.5 16 9.5 16 1.5 0 3.8-1.8 6.5-1.8s4.8 1.8 6.3 1.8c4.5 0 8.2-9.5 8.2-9.5s-4.5-1.5-4.5-8c0-5 3.5-7.6 3.5-7.6s-2.2-3-6-3h-.7z" fill="#fff"/>
  <path d="M32 10c0 3-2 5-4 5s-3-2-3-5 2-5 4-5 3 2 3 5z" fill="#5DBB63" opacity="0.8"/>
</svg>