<svg xmlns="http://www.w3.org/2000/svg" viewBox="0 0 64 64" fill="none">
  <circle cx="32" cy="32" r="30" fill="#fff"/>
  <circle cx="32" cy="32" r="30" fill="none" stroke="#e0e0e0" stroke-width="1"/>
  <path d="M42.6 33.3c0-.9-.1-1.8-.3-2.6H32v5h6c-.3 1.4-1.1 2.6-2.3 3.4v2.8h3.7c2.2-2 3.4-5 3.4-8.6z" fill="#4285F4"/>
  <path d="M32 43c3.2 0 5.9-1 7.8-2.8l-3.7-2.9c-1 .7-2.4 1.2-4.1 1.2-3.1 0-5.8-2.1-6.7-5h-3.8v3.1C23.4 40.5 27.4 43 32 43z" fill="#34A853"/>
  <path d="M25.3 36.5c-.2-.7-.4-1.5-.4-2.3s.1-1.6.4-2.3v-3.1h-3.8c-.8 1.6-1.2 3.3-1.2 5.4s.5 3.8 1.2 5.4l3.8-3.1z" fill="#FBBC05"/>
  <path d="M32 25.8c1.8 0 3.3.6 4.5 1.8l3.4-3.4C37.9 22.3 35.2 21 32 21c-4.6 0-8.6 2.5-10.5 6.2l3.8 3.1c.9-2.9 3.6-5 6.7-5z" fill="#EA4335"/>
</svg>